<svg
  xmlns="http://www.w3.org/2000/svg"
  width="1200"
  height="800"
  viewBox="0 0 1200 800"
  fill="none"
>
  <rect width="1200" height="800" fill="#F8F5EE" />
  <rect x="60" y="60" width="1080" height="680" rx="28" fill="#FFFFFF" stroke="#D9D3C7" stroke-width="4" />
  <text x="90" y="120" fill="#1E293B" font-family="Arial, sans-serif" font-size="36" font-weight="700">
    Floor Map Demo
  </text>
  <rect id="desk_a_01" x="140" y="190" width="150" height="90" rx="16" fill="#DCE8C5" stroke="#5B6B3C" stroke-width="3" />
  <rect id="desk_a_02" x="330" y="190" width="150" height="90" rx="16" fill="#DCE8C5" stroke="#5B6B3C" stroke-width="3" />
  <rect id="desk_a_03" x="520" y="190" width="150" height="90" rx="16" fill="#DCE8C5" stroke="#5B6B3C" stroke-width="3" />
  <rect id="desk_b_01" x="140" y="340" width="150" height="90" rx="16" fill="#D9E7F7" stroke="#365B7A" stroke-width="3" />
  <rect id="desk_b_02" x="330" y="340" width="150" height="90" rx="16" fill="#D9E7F7" stroke="#365B7A" stroke-width="3" />
  <rect id="desk_b_03" x="520" y="340" width="150" height="90" rx="16" fill="#D9E7F7" stroke="#365B7A" stroke-width="3" />
  <rect x="760" y="180" width="250" height="320" rx="24" fill="#FBF0D8" stroke="#A77B2D" stroke-width="3" />
  <text x="810" y="240" fill="#7C5B1A" font-family="Arial, sans-serif" font-size="28" font-weight="700">
    Meeting Zone
  </text>
  <text x="165" y="245" fill="#1E293B" font-family="Arial, sans-serif" font-size="24" font-weight="700">desk_a_01</text>
  <text x="355" y="245" fill="#1E293B" font-family="Arial, sans-serif" font-size="24" font-weight="700">desk_a_02</text>
  <text x="545" y="245" fill="#1E293B" font-family="Arial, sans-serif" font-size="24" font-weight="700">desk_a_03</text>
  <text x="165" y="395" fill="#1E293B" font-family="Arial, sans-serif" font-size="24" font-weight="700">desk_b_01</text>
  <text x="355" y="395" fill="#1E293B" font-family="Arial, sans-serif" font-size="24" font-weight="700">desk_b_02</text>
  <text x="545" y="395" fill="#1E293B" font-family="Arial, sans-serif" font-size="24" font-weight="700">desk_b_03</text>
</svg>
