<svg xmlns="http://www.w3.org/2000/svg" viewBox="0 0 1000 600" width="1000" height="600" font-family="Arial, Helvetica, sans-serif">
  <defs>
    <style>
      .wall   { fill: none; stroke: #334155; stroke-width: 4; }
      .inner-wall { fill: none; stroke: #64748b; stroke-width: 2.5; stroke-dasharray: 4 2; }
      .desk   { fill: #e0f2fe; stroke: #0284c7; stroke-width: 1.5; cursor: pointer; transition: all 0.2s; }
      .room   { fill: #f0fdf4; stroke: #16a34a; stroke-width: 1.5; cursor: pointer; transition: all 0.2s; }
      .common { fill: #fef3c7; stroke: #d97706; stroke-width: 1.5; }
      .label  { font-size: 11px; fill: #1e293b; text-anchor: middle; font-weight: 500; }
      .title  { font-size: 24px; fill: #0f172a; font-weight: 800; }
      .roomlabel { font-size: 12px; fill: #0f172a; text-anchor: middle; font-weight: bold; }
    </style>
  </defs>
  <rect width="1000" height="600" fill="#f8fafc" />
  <rect class="wall" x="20" y="20" width="960" height="560" rx="12" />
  <text class="title" x="40" y="60">Coworking Space Hub</text>
  <line class="inner-wall" x1="300" y1="20" x2="300" y2="580" />
  <g id="room-alpha">
    <rect class="room" id="room_alpha" x="40" y="100" width="220" height="150" rx="8" />
    <text class="roomlabel" x="150" y="170">Meeting Room Alpha</text>
    <text class="label" x="150" y="190">(Capacity: 8)</text>
  </g>
  <g id="room-bravo">
    <rect class="room" id="room_bravo" x="40" y="300" width="220" height="150" rx="8" />
    <text class="roomlabel" x="150" y="370">Meeting Room Bravo</text>
    <text class="label" x="150" y="390">(Capacity: 6)</text>
  </g>
  <g>
    <rect class="common" x="40" y="470" width="220" height="90" rx="8" />
    <text class="roomlabel" x="150" y="520">Social Lounge Area</text>
  </g>
  <g id="g-desk_1">
    <rect class="desk" id="desk_1" x="360" y="140" width="80" height="50" rx="4" />
    <text class="label" x="400" y="170">Desk 1</text>
  </g>
  <g id="g-desk_2">
    <rect class="desk" id="desk_2" x="360" y="210" width="80" height="50" rx="4" />
    <text class="label" x="400" y="240">Desk 2</text>
  </g>
  <g id="g-desk_3">
    <rect class="desk" id="desk_3" x="500" y="140" width="80" height="50" rx="4" />
    <text class="label" x="540" y="170">Desk 3</text>
  </g>
  <g id="g-desk_4">
    <rect class="desk" id="desk_4" x="500" y="210" width="80" height="50" rx="4" />
    <text class="label" x="540" y="240">Desk 4</text>
  </g>
  <g id="g-desk_5">
    <rect class="desk" id="desk_5" x="640" y="140" width="80" height="50" rx="4" />
    <text class="label" x="680" y="170">Desk 5</text>
  </g>
  <g id="g-desk_6">
    <rect class="desk" id="desk_6" x="640" y="210" width="80" height="50" rx="4" />
    <text class="label" x="680" y="240">Desk 6</text>
  </g>
  <g id="g-desk_7">
    <rect class="desk" id="desk_7" x="780" y="140" width="80" height="50" rx="4" />
    <text class="label" x="820" y="170">Desk 7</text>
  </g>
  <g id="g-desk_8">
    <rect class="desk" id="desk_8" x="780" y="210" width="80" height="50" rx="4" />
    <text class="label" x="820" y="240">Desk 8</text>
  </g>
  <g id="g-desk_9">
    <rect class="desk" id="desk_9" x="360" y="350" width="80" height="50" rx="4" />
    <text class="label" x="400" y="380">Desk 9</text>
  </g>
  <g id="g-desk_10">
    <rect class="desk" id="desk_10" x="360" y="420" width="80" height="50" rx="4" />
    <text class="label" x="400" y="450">Desk 10</text>
  </g>
  <g id="g-desk_11">
    <rect class="desk" id="desk_11" x="500" y="350" width="80" height="50" rx="4" />
    <text class="label" x="540" y="380">Desk 11</text>
  </g>
  <g id="g-desk_12">
    <rect class="desk" id="desk_12" x="500" y="420" width="80" height="50" rx="4" />
    <text class="label" x="540" y="450">Desk 12</text>
  </g>
  <g id="g-desk_13">
    <rect class="desk" id="desk_13" x="640" y="350" width="80" height="50" rx="4" />
    <text class="label" x="680" y="380">Desk 13</text>
  </g>
  <g id="g-desk_14">
    <rect class="desk" id="desk_14" x="640" y="420" width="80" height="50" rx="4" />
    <text class="label" x="680" y="450">Desk 14</text>
  </g>
  <g id="g-desk_15">
    <rect class="desk" id="desk_15" x="780" y="350" width="80" height="50" rx="4" />
    <text class="label" x="820" y="380">Desk 15</text>
  </g>
  <g id="g-desk_16">
    <rect class="desk" id="desk_16" x="780" y="420" width="80" height="50" rx="4" />
    <text class="label" x="820" y="450">Desk 16</text>
  </g>

</svg>